<svg xmlns="http://www.w3.org/2000/svg" width="400" height="200" viewBox="0 0 145 45">
  <defs>
  <linearGradient id="dna-gradient" x1="0%" y1="0%" x2="100%" y2="0%">
    <stop offset="0%" style="stop-color:#ec407a;stop-opacity:1"/>
    <stop offset="100%" style="stop-color:#ec407a;stop-opacity:1"/>
  </linearGradient>
</defs>
  <defs>
    <linearGradient id="arrow-gradient" x1="0%" y1="0%" x2="100%" y2="0%">
      <stop offset="0%" style="stop-color:#ec407a;stop-opacity:1"/>
      <stop offset="100%" style="stop-color:#8e24aa;stop-opacity:1"/>
    </linearGradient>
  </defs>
    <defs>
  </defs>
    <defs>
    <linearGradient id="dl-gradient" x1="0%" y1="0%" x2="100%" y2="0%">
      <stop offset="0%" style="stop-color:#8e24aa;stop-opacity:1"/>
      <stop offset="100%" style="stop-color:#8e24aa;stop-opacity:1"/>
    </linearGradient>
  </defs>


  
<g transform="translate(0, 0) scale(2.3)" fill="url(#dna-gradient)" stroke="url(#dna-gradient)" stroke-linecap="round" stroke-linejoin="round" stroke-width="2">
  <path d="M8.72,8h6.56M7.09,4h9.82M15.28,16H8.72m8.19,4H7.09"/>
  <path d="M7,21v-.17A10.3,10.3,0,0,1,12,12h0a10.36,10.36,0,0,0,5-8.83V3"/>
  <path d="M17,21v-.17A10.3,10.3,0,0,0,12,12h0A10.3,10.3,0,0,1,7,3.17V3"/>
</g>



    <g transform="translate(45, 10) scale(1.5)" fill="#4CAF50" viewBox="0 0 24 24" xmlns="http://www.w3.org/2000/svg" data-name="Layer 1">
    <path id="primary" d="M20,15H6.41l1.3-1.29a1,1,0,0,0-1.42-1.42l-3,3a1,1,0,0,0,0,1.42l3,3a1,1,0,0,0,1.42,0,1,1,0,0,0,0-1.42L6.41,17H20a1,1,0,0,0,0-2Z" style="fill: url(#arrow-gradient);"/>
    <path id="primary" d="M20.71,7.29l-3-3a1,1,0,0,0-1.42,1.42L17.59,7H4A1,1,0,0,0,4,9H17.59l-1.3,1.29a1,1,0,0,0,0,1.42,1,1,0,0,0,1.42,0l3-3A1,1,0,0,0,20.71,7.29Z" style="fill: url(#arrow-gradient);"/>
  </g>

  
<g transform="translate(80, -3)">
  <g fill="none" stroke-width="3" stroke="url(#dl-gradient)">
    <circle cx="34.52" cy="11.43" r="5.82"/>
    <circle cx="53.63" cy="31.6" r="5.82"/>
    <circle cx="34.52" cy="50.57" r="5.82"/>
    <circle cx="15.16" cy="42.03" r="5.82"/>
    <circle cx="15.16" cy="19.27" r="5.82"/>
    <circle cx="34.51" cy="29.27" r="4.7"/>
    <line x1="20.17" y1="16.3" x2="28.9" y2="12.93"/>
    <line x1="38.6" y1="15.59" x2="49.48" y2="27.52"/>
    <line x1="50.07" y1="36.2" x2="38.67" y2="46.49"/>
    <line x1="18.36" y1="24.13" x2="30.91" y2="46.01"/>
    <line x1="20.31" y1="44.74" x2="28.7" y2="48.63"/>
    <line x1="17.34" y1="36.63" x2="31.37" y2="16.32"/>
    <line x1="20.52" y1="21.55" x2="30.34" y2="27.1"/>
    <line x1="39.22" y1="29.8" x2="47.81" y2="30.45"/>
    <line x1="34.51" y1="33.98" x2="34.52" y2="44.74"/>
  </g>
</g>

</svg>
